<svg xmlns="http://www.w3.org/2000/svg" width="49.202" height="40.964" viewBox="0 0 49.202 40.964">
  <g>
    <circle cx="40.66" cy="19.267" r="0.875"/>
    <path d="M26.613,26.6H3.974a1,1,0,0,1-.856-1.517L14.7,5.865a1,1,0,0,1,.856-.483h.01a1,1,0,0,1,.857.5L27.48,25.1a1,1,0,0,1-.867,1.5Zm-20.869-2H24.883L15.534,8.352Z"/>
    <path d="M35.861,40.964H7.728a1,1,0,0,1-.81-.412L.191,31.283A1,1,0,0,1,1,29.7H29.511a1,1,0,0,1,.824.435L36.686,39.4a1,1,0,0,1-.825,1.566Zm-27.624-2H33.964L28.984,31.7H2.961Z"/>
    <path d="M40.745,40.964l-.077,0a1,1,0,0,1-.783-.487L16.786,1.51A1,1,0,0,1,17.647,0H29.678a1,1,0,0,1,.85.474l9.45,15.262a1,1,0,1,1-1.7,1.053L29.121,2H19.4L40.879,38.229l6.095-7.394L42.18,23.092a1,1,0,1,1,1.7-1.053l5.172,8.353a1,1,0,0,1-.079,1.162L41.517,40.6A1,1,0,0,1,40.745,40.964Z"/>
  </g>
</svg>
