<svg xmlns="http://www.w3.org/2000/svg" width="44.499" height="28.175" viewBox="0 0 44.499 28.175">
  <g>
    <path d="M1,28.175a1,1,0,0,1-1-1.013l.048-3.685a1,1,0,0,1,1-.988h.014A1,1,0,0,1,2.048,23.5l-.035,2.673H15.7c.508-.014,5.145-.326,5.235-6.891.061-4.457-5.093-4.909-5.312-4.926a1,1,0,0,1,.006-1.994c.423-.035,4.178-.485,4.178-5.321,0-4.777-4.054-4.954-4.515-4.958L2.245,2.006,2.1,16.245a1,1,0,0,1-1,.989H1.088A1,1,0,0,1,.1,16.224L.255.989a1,1,0,0,1,1-.989h.006L15.3.085c2.246,0,6.505,1.454,6.505,6.958a7.055,7.055,0,0,1-2.883,6.16,6.38,6.38,0,0,1,4.011,6.109c-.119,8.659-7.149,8.862-7.22,8.863Z"/>
    <path d="M11.982,12.087h-4.7a.959.959,0,0,1-.959-.959V5.83a.96.96,0,0,1,.936-.959l4.7-.111a4.785,4.785,0,0,1,2.52.606,3.346,3.346,0,0,1,1.809,2.953,3.494,3.494,0,0,1-1.393,2.792A4.639,4.639,0,0,1,11.982,12.087ZM8.236,10.169h3.746a2.715,2.715,0,0,0,1.7-.555,1.6,1.6,0,0,0,.674-1.295,1.4,1.4,0,0,0-.849-1.291A2.835,2.835,0,0,0,12,6.678l-3.759.089Z"/>
    <path d="M13.532,23.234H7.277a1,1,0,0,1-1-1V16.251a1,1,0,0,1,1-1l6.256-.017a1.524,1.524,0,0,1,.169.014,3.749,3.749,0,0,1,3.067,3.814,4.363,4.363,0,0,1-2.926,4.124A1.006,1.006,0,0,1,13.532,23.234Zm-5.255-2h5.07a2.317,2.317,0,0,0,1.419-2.172,1.745,1.745,0,0,0-1.339-1.828l-5.15.014Z"/>
    <path d="M38.3,16.041h-7.4a.959.959,0,0,1-.953-.852,5.063,5.063,0,0,1,1.091-3.626A4.553,4.553,0,0,1,34.6,10.169a4.557,4.557,0,0,1,3.565,1.394,5.065,5.065,0,0,1,1.09,3.626A.959.959,0,0,1,38.3,16.041Zm-6.406-1.918H37.3a2.544,2.544,0,0,0-.578-1.29,2.743,2.743,0,0,0-2.126-.746,2.744,2.744,0,0,0-2.126.746A2.549,2.549,0,0,0,31.892,14.123Z"/>
    <path d="M35.17,27.725c-9.92,0-10.427-7.1-10.431-7.171a.959.959,0,1,1,1.915-.106c.016.212.467,5.359,8.516,5.359,2.691,0,4.66-.608,5.852-1.806a4.084,4.084,0,0,0,.994-1.613H39.027c-.467.978-1.683,2.06-4.28,2.06-3.943,0-5.129-3.678-5.2-5.624a.959.959,0,0,1,.959-1h12.04c.106-1.546.085-4.981-1.868-7.277C39.343,8.986,37.3,8.193,34.6,8.193c-7.373,0-8.213,5.362-8.245,5.59a.959.959,0,0,1-1.9-.253c.01-.072,1.048-7.255,10.147-7.255,3.3,0,5.835,1.024,7.546,3.041,3.146,3.711,2.248,9.388,2.209,9.628a.959.959,0,0,1-.947.8h-11.8a3.2,3.2,0,0,0,3.14,2.784c1.953,0,2.559-.735,2.609-1.171a1,1,0,0,1,.956-.889h4.837a.959.959,0,0,1,.959.935,5.817,5.817,0,0,1-1.685,3.907C40.86,26.913,38.42,27.725,35.17,27.725Z"/>
    <circle cx="25.401" cy="17.068" r="0.834"/>
    <circle cx="1" cy="19.621" r="0.834"/>
    <path d="M40.022,5.578H29.46a1,1,0,0,1-1-1V1.089a1,1,0,0,1,1-1H40.022a1,1,0,0,1,1,1V4.578A1,1,0,0,1,40.022,5.578Zm-9.562-2h8.562V2.089H30.46Z"/>
  </g>
</svg>
