<svg xmlns="http://www.w3.org/2000/svg" width="32.171" height="43.532" viewBox="0 0 32.171 43.532">
  <g>
    <path d="M20.089,27.009a.987.987,0,0,1-.5-.138,1,1,0,0,1-.357-1.368L30.171,6.836V2H23.4L20.077,7.616A1,1,0,0,1,18.355,6.6L21.969.491A1,1,0,0,1,22.83,0h8.341a1,1,0,0,1,1,1V7.107a1,1,0,0,1-.138.506l-11.08,18.9A1,1,0,0,1,20.089,27.009Z"/>
    <path d="M10.4,43.532H1.064a1,1,0,0,1-1-.986L0,37.907a1.012,1.012,0,0,1,.135-.515l2.83-4.871a1,1,0,0,1,1.729,1L2,38.156l.046,3.376H9.832l3.252-5.549a1,1,0,0,1,1.725,1.012l-3.542,6.043A1,1,0,0,1,10.4,43.532Z"/>
    <path d="M7.472,27.75a1,1,0,0,1-.864-1.5l5.148-8.86a1,1,0,1,1,1.729,1l-5.147,8.86A1,1,0,0,1,7.472,27.75Z"/>
    <path d="M12.1,18.662H1.383a1,1,0,0,1-1-1V7.107a1,1,0,0,1,1-1H19.216a1,1,0,1,1,0,2H2.383v8.555H12.1a1,1,0,0,1,0,2Z"/>
    <path d="M31.171,37.489H14.455a1,1,0,1,1,0-2H30.171v-8.48H20.09a1,1,0,0,1,0-2H31.171a1,1,0,0,1,1,1v10.48A1,1,0,0,1,31.171,37.489Z"/>
    <circle cx="5.723" cy="29.705" r="0.875"/>
  </g>
</svg>
