<svg xmlns="http://www.w3.org/2000/svg" width="24.989" height="24.944" viewBox="0 0 24.989 24.944">
  <g>
    <path d="M12.489,24.942c-3.652,0-7.305.007-10.957,0-1.2,0-1.455-.254-1.458-1.432C.061,19.362.19,15.212,0,11.076A3.385,3.385,0,0,1,1.545,8.115,18.978,18.978,0,0,1,3.861,6.607a1.079,1.079,0,0,0,.43-1.09c-.022-.913-.029-1.827,0-2.739A.963.963,0,0,1,5.318,1.759a20.582,20.582,0,0,1,2.317.007A4.672,4.672,0,0,0,11.721.427c.453-.479.966-.606,1.432-.115,1.362,1.432,3.06,1.617,4.887,1.451a9.2,9.2,0,0,1,1.684,0,.969.969,0,0,1,1,1.044,5.374,5.374,0,0,0,.006.842c.138.938-.405,2.007.315,2.806a13.139,13.139,0,0,0,2.058,1.615c.2.151.5.187.692.351A2.88,2.88,0,0,1,24.987,10.9c-.115,4.071-.039,8.147-.047,12.221,0,1.8-.034,1.821-1.915,1.823Q17.757,24.949,12.489,24.942ZM12.6,2.6c-2.178,0-4.356.026-6.534-.015-.69-.013-1,.061-.959.892.083,1.823.031,3.653.023,5.48,0,.743.2,1.558-.617,2.062-.074-.663-.163-1.325-.219-1.99-.046-.55-.054-1.1-.078-1.655-.4.306-.788.623-1.2.916-.43.31-.874.6-1.314.9-.381.255-.345.489.006.747Q4.941,12.311,8.163,14.7c.288.214.542.522.205.844-.109.1-.523.037-.69-.092-1.976-1.521-3.928-3.074-5.9-4.6a1.2,1.2,0,0,0-.712-.164c-.053,0-.145.352-.146.542C.91,15.03.917,18.824.907,22.618c0,.629.033.614.616.289a57.651,57.651,0,0,0,4.813-3.624c1.757-1.23,3.427-2.582,5.153-3.856,1.032-.762,1.578-.829,2.434.012A43.991,43.991,0,0,0,18.065,18.7q2.794,2.16,5.588,4.321a2.761,2.761,0,0,0,.3.176,1.084,1.084,0,0,0,.143-.36q.011-5.8,0-11.593c0-.19-.088-.541-.143-.543a1.157,1.157,0,0,0-.71.157c-1.539,1.223-3.05,2.48-4.582,3.711a14.165,14.165,0,0,1-1.474,1.027c-.057.036-.322-.181-.422-.328-.073-.106-.033-.289-.043-.438.915-.017,1.153-.922,1.759-1.347s1.179-.888,1.766-1.336c.855-.652,1.688-1.334,2.568-1.95.961-.672.987-.671.175-1.327-.68-.549-1.373-1.082-2.06-1.622-.067.886-.137,1.771-.2,2.657a5.066,5.066,0,0,1-.012.63,1.891,1.891,0,0,1-.237.462c-.149-.149-.369-.273-.431-.452a3.138,3.138,0,0,1-.159-.987c-.013-2.037-.025-4.075,0-6.112.008-.582-.058-.877-.766-.862C16.952,2.628,14.773,2.6,12.6,2.6Zm-.06,21.5q5.04,0,10.081-.006a2.51,2.51,0,0,0,.571-.137,1.765,1.765,0,0,0-.313-.439c-1.014-.753-2.069-1.455-3.058-2.239q-3.332-2.637-6.606-5.345c-.448-.369-.921-.459-1.28-.083a33.661,33.661,0,0,1-4.119,3.255C5.892,20.572,4,22.068,2.092,23.554a3.479,3.479,0,0,0-.3.3c.151.083.3.238.451.238C5.674,24.1,9.105,24.1,12.535,24.1ZM12.512,1.755a5.964,5.964,0,0,0,.613-.006,1.578,1.578,0,0,0,.356-.126c-.093-.145-.153-.334-.283-.427a.971.971,0,0,0-1.534.154.537.537,0,0,0,.031.387A7.406,7.406,0,0,0,12.512,1.755Z"/>
    <path d="M17.354,8.852c0,.421-.021.844,0,1.263.043.7-.262,1.02-.9,1.392a1.2,1.2,0,0,1-1.5-.208c-.7-.57-1.136-.861-2.117-.334s-2.606-.924-2.65-2.115a7.386,7.386,0,0,1,0-1.052,2.3,2.3,0,0,1,1.735-1.809,4.684,4.684,0,0,1,1.185.167,4.754,4.754,0,0,1-.946.644c-1.172.439-1.222.481-1.137,1.77a1.911,1.911,0,0,0,1.319,1.6.993.993,0,0,0,.746-.188c.353-.387.6-.87.917-1.294a5.856,5.856,0,0,1,.59-.6,2.325,2.325,0,0,1,.209.727,1.852,1.852,0,0,0,.675,1.84c.387.277.731.276.9-.137a4.748,4.748,0,0,0-2.256-5.883A3.954,3.954,0,0,0,8.487,8.079a4.358,4.358,0,0,0,1.894,3.846c.6.448,1.294.1,1.7.453.29.25,1.074.065.883.69-.216.706-.7.068-1.072.087-1.858.1-2.865-1.2-3.776-2.436a4.2,4.2,0,0,1-.322-3.75,4.738,4.738,0,0,1,2.78-3.153,4.929,4.929,0,0,1,4.749.489A3.722,3.722,0,0,1,17.358,8.01,8.151,8.151,0,0,0,17.354,8.852Z"/>
  </g>
</svg>
