<svg xmlns="http://www.w3.org/2000/svg" width="43.859" height="43.86" viewBox="0 0 43.859 43.86">
  <g>
    <path d="M22.119,30.013A7.784,7.784,0,1,1,29.9,22.229,7.793,7.793,0,0,1,22.119,30.013Zm0-13.767A5.983,5.983,0,1,0,28.1,22.229,5.99,5.99,0,0,0,22.119,16.246Z"/>
    <path d="M23.733,34.046a.9.9,0,0,1-.13-1.791A10.134,10.134,0,1,0,11.985,22.229,10.07,10.07,0,0,0,14.953,29.4a.9.9,0,1,1-1.272,1.273,11.934,11.934,0,1,1,20.372-8.439A12,12,0,0,1,23.865,34.036,1,1,0,0,1,23.733,34.046Z"/>
    <path d="M32.133,39.6H12.213a7.814,7.814,0,0,1-7.8-7.806V11.879a7.815,7.815,0,0,1,7.8-7.807h19.92a7.815,7.815,0,0,1,7.806,7.807V31.8A7.814,7.814,0,0,1,32.133,39.6ZM12.213,5.873a6.012,6.012,0,0,0-6,6.006V31.8a6.013,6.013,0,0,0,6,6.006h19.92A6.014,6.014,0,0,0,38.14,31.8V11.879a6.013,6.013,0,0,0-6.007-6.006Z"/>
    <path d="M32.143,43.86H11.717A11.73,11.73,0,0,1,0,32.143V11.717A11.73,11.73,0,0,1,11.717,0a.9.9,0,0,1,0,1.8A9.928,9.928,0,0,0,1.8,11.717V32.143a9.929,9.929,0,0,0,9.917,9.917H32.143a9.929,9.929,0,0,0,9.917-9.917V11.717A9.928,9.928,0,0,0,32.143,1.8H20.832a.9.9,0,0,1,0-1.8H32.143A11.729,11.729,0,0,1,43.859,11.717V32.143A11.729,11.729,0,0,1,32.143,43.86Z"/>
    <path d="M33.182,13.147a2.743,2.743,0,1,1,2.742-2.742A2.745,2.745,0,0,1,33.182,13.147Zm0-4.485a1.743,1.743,0,1,0,1.742,1.743A1.745,1.745,0,0,0,33.182,8.662Z"/>
    <circle cx="18.279" cy="32.27" r="0.875"/>
    <circle cx="16.046" cy="0.9" r="0.875"/>
  </g>
</svg>
