<svg xmlns="http://www.w3.org/2000/svg" width="43.489" height="44.256" viewBox="0 0 43.489 44.256">
  <g>
    <path d="M10.957,14.405a3.7,3.7,0,1,0-3.7-3.7A3.7,3.7,0,0,0,10.957,14.405Zm0-5.4a1.7,1.7,0,1,1-1.7,1.7A1.7,1.7,0,0,1,10.957,9Z"/>
    <path d="M42.489,0H11.212a1,1,0,0,0,0,2H41.489V42.054l-1.353.076a1,1,0,0,0,.054,2l.057,0,2.3-.128a1,1,0,0,0,.944-1V1A1,1,0,0,0,42.489,0Z"/>
    <path d="M32.276,42.256H2v-40H4.957a1,1,0,0,0,0-2H1a1,1,0,0,0-1,1v42a1,1,0,0,0,1,1H32.276a1,1,0,1,0,0-2Z"/>
    <path d="M8.021,37.49h6a1,1,0,0,0,1-1V16.7a1,1,0,0,0-1-1h-.005l-5.841.032a1,1,0,0,0-.994.993l-.16,19.755a1,1,0,0,0,1,1.008ZM9.173,17.729l3.848-.021V35.49H9.029Z"/>
    <path d="M31.066,15.832a9.643,9.643,0,0,0-6.443,1.511L24.6,16.66a1,1,0,0,0-1-.958H17.979a1,1,0,0,0-1,1V36.49a1,1,0,0,0,1,1h6.382a1,1,0,0,0,1-1V24.3a1.877,1.877,0,0,1,2.14-1.721,2.387,2.387,0,0,1,2.371,1.634v12.4a1,1,0,0,0,1,1h6.894a1,1,0,0,0,1-1v-11.6a10.023,10.023,0,0,0-1.723-5.78A7.715,7.715,0,0,0,31.066,15.832Zm5.7,19.785H31.872V24.106a.908.908,0,0,0-.014-.164,4.354,4.354,0,0,0-4.2-3.357,3.893,3.893,0,0,0-4.29,3.543.942.942,0,0,0-.006.106V35.49H18.979V17.7h3.657l.088,2.107a.994.994,0,0,0,.795.929,1.006,1.006,0,0,0,1.106-.541c.055-.11,1.405-2.693,6.308-2.369a5.7,5.7,0,0,1,4.47,2.554,8.039,8.039,0,0,1,1.363,4.635Z"/>
    <ellipse cx="8.181" cy="1.128" rx="0.926" ry="0.957"/>
    <path d="M36.1,42.213a.958.958,0,1,0,.925.958A.942.942,0,0,0,36.1,42.213Z"/>
  </g>
</svg>
