<svg xmlns="http://www.w3.org/2000/svg" width="21.207" height="26.68" viewBox="0 0 21.207 26.68">
  <g>
    <path d="M1.364,11.379c0,.842.028,1.686-.008,2.526-.035.824.716,1.485.444,2.358a.848.848,0,0,0,.152.557c.975,1.7,1.392,3.732,2.958,5.1.152.132.129.465.187.7-.38,0-.91.16-1.112-.03a7.9,7.9,0,0,1-1.342-1.744c-.46-.781-.759-1.66-1.232-2.432-.5-.809-.216-1.854-.877-2.588.065-1.991-.9-3.957-.383-5.913A22.583,22.583,0,0,1,1.238,5.742,18.2,18.2,0,0,1,3.11,1.9a4.649,4.649,0,0,1,6.908-.65,1.894,1.894,0,0,1,.469,2.42C9.612,5.132,9.379,6.918,8.154,8.186c-.112,1.19-.973,1.176-1.823,1.088-.716-.073-.811.282-.756.859.078.81-.869,1.587-.349,2.312.532.742.17,1.48.37,2.177a14.444,14.444,0,0,0,.96,2.545,1.2,1.2,0,0,0,1,.516c1.685-.312,2.742.564,3.741,1.718a10.223,10.223,0,0,0,1.293.913c2.236,1.854,2.874,4.042-.482,5.8a3.941,3.941,0,0,1-4.537-.31c-.177-.142-.209-.466-.309-.705.252-.071.584-.28.742-.189a5.979,5.979,0,0,0,3.208.387,2.817,2.817,0,0,0,1.946-1.848,1.4,1.4,0,0,0-.4-1.314c-1.083-1-2.116-2.053-3.132-3.12a1.2,1.2,0,0,0-1.451-.33c-1.553.534-1.476.45-2.32-.865-1.592-2.481-1.639-5.219-1.527-8a3.182,3.182,0,0,1,.408-1.088c.24-.528.732-.292,1.094-.272A1.855,1.855,0,0,0,7.693,7.152c.633-1.283,1.315-2.543,1.942-3.829.343-.7.224-1.292-.436-1.565C6.982.839,4.937.759,3.475,3.41a16.974,16.974,0,0,1-1.3,2.4c-.588.745-.37,1.644-.72,2.451-.384.886-.087,2.066-.087,3.118Z"/>
    <path d="M15.694,16.019a3.549,3.549,0,0,1-2.434-.512,2.133,2.133,0,0,0-.919-.307c-.486-.05-.99.042-1.471-.027a4.008,4.008,0,0,1-1.7-.451c-.746-.53.149-1.11.281-1.585a15.085,15.085,0,0,0,.362-2.373,9.542,9.542,0,0,1,.611-2.688,8.888,8.888,0,0,1,1.454-1.925c.986-1.192,2.491-1.324,3.8-1.423A4.524,4.524,0,0,1,19.08,6.113a5.746,5.746,0,0,1,2.1,4.824C20.932,13.594,18.208,16.313,15.694,16.019Zm4.519-5.63a5.246,5.246,0,0,1-.286-1.133c-.054-1.9-1.6-2.7-2.894-3.268-2.049-.9-4.407.412-5.55,2.634-.148.289-.409.588-.4.875a6.667,6.667,0,0,1-.841,3.87c-.049.078.239.529.371.529a4.571,4.571,0,0,1,3.252.835c.339.29,1-.028,1.555.292.375.214,1.094-.11,1.637-.267A4.278,4.278,0,0,0,19.4,12.887,9.659,9.659,0,0,0,20.213,10.389Z"/>
    <path d="M6.068,24.683c-.225-.3-.417-.459-.464-.654-.026-.106.192-.272.3-.41a2.027,2.027,0,0,1,.5.439C6.446,24.134,6.254,24.349,6.068,24.683Z"/>
    <path d="M17.872,11.192c-.225-.3-.416-.459-.464-.654-.025-.106.192-.271.3-.41a1.992,1.992,0,0,1,.5.439C18.251,10.643,18.058,10.858,17.872,11.192Z"/>
    <path d="M16.343,10.46c-.294.274-.466.515-.538.488a1.177,1.177,0,0,1-.508-.418c-.029-.041.2-.378.3-.377A2.418,2.418,0,0,1,16.343,10.46Z"/>
    <path d="M14.233,10.483c-.3.226-.459.417-.654.464-.106.026-.272-.192-.41-.3a2.027,2.027,0,0,1,.439-.5C13.684,10.105,13.9,10.3,14.233,10.483Z"/>
  </g>
</svg>
